{"title":"Glory 26 Super Fight Series 720p WEB-DL x264 -={SPARROW}=-","uid":12913673,"size":2036401300,"categoryP":"video","categoryS":"hd___tv_shows","magnet":"?xt=urn:btih:1bf350147081a359c51cf745a50911d078b1708c&amp;dn=Glory+26+Super+Fight+Series+720p+WEB-DL+x264+-%3D%7BSPARROW%7D%3D-&amp;tr=udp%3A%2F%2Ftracker.leechers-paradise.org%3A6969&amp;tr=udp%3A%2F%2Fzer0day.ch%3A1337&amp;tr=udp%3A%2F%2Fopen.demonii.com%3A1337&amp;tr=udp%3A%2F%2Ftracker.coppersurfer.tk%3A6969&amp;tr=udp%3A%2F%2Fexodus.desync.com%3A6969","seeders":4,"leechers":0,"uploader":"CenaCme","files":2,"time":1449321545,"description":"General\r\nComplete name                            : Glory.26.Super.Fight.Series.720p.WEB-DL.x264.mp4\r\nFormat                                   : MPEG-4\r\nFormat profile                           : Base Media\r\nCodec ID                                 : isom\r\nFile size                                : 1.90 GiB\r\nDuration                                 : 1h 59mn\r\nOverall bit rate                         : 2 277 Kbps\r\nWriting application                      : Lavf55.19.104\r\n\r\nVideo\r\nID                                       : 1\r\nFormat                                   : AVC\r\nFormat/Info                              : Advanced Video Codec\r\nFormat profile                           :   \r\nFormat settings, CABAC                   : Yes\r\nFormat settings, ReFrames                : 4 frames\r\nCodec ID                                 : avc1\r\nCodec ID/Info                            : Advanced Video Coding\r\nDuration                                 : 1h 59mn\r\nBit rate                                 : 2 135 Kbps\r\nWidth                                    : 1 280 pixels\r\nHeight                                   : 720 pixels\r\nDisplay aspect ratio                     : 16:9\r\nFrame rate mode                          : Variable\r\nFrame rate                               : 29.970 fps\r\nMinimum frame rate                       : 29.412 fps\r\nMaximum frame rate                       : 30.303 fps\r\nColor space                              : YUV\r\nChroma subsampling                       : 4:2:0\r\nBit depth                                : 8 bits\r\nScan type                                : Progressive\r\nBits/(Pixel*Frame)                       : 0.077\r\nStream size                              : 1.78 GiB (94%)\r\n\r\nAudio\r\nID                                       : 2\r\nFormat                                   : AAC\r\nFormat/Info                              : Advanced Audio Codec\r\nFormat profile                           : LC\r\nCodec ID                                 : 40\r\nDuration                                 : 1h 59mn\r\nBit rate mode                            : Constant\r\nBit rate                                 : 132 Kbps\r\nChannel(s)                               : 2 channels\r\nChannel positions                        : Front: L R\r\nSampling rate                            : 44.1 KHz\r\nCompression mode                         : Lossy\r\nStream size                              : 113 MiB (6%)\r\n\r\n\r\nThumb sheet:\r\n \nhttp://extraimago.com/image/Gwn","torrent":{"xt":"urn:btih:1bf350147081a359c51cf745a50911d078b1708c","amp;dn":"Glory+26+Super+Fight+Series+720p+WEB-DL+x264+-%3D%7BSPARROW%7D%3D-","amp;tr":["udp%3A%2F%2Ftracker.leechers-paradise.org%3A6969","udp%3A%2F%2Fzer0day.ch%3A1337","udp%3A%2F%2Fopen.demonii.com%3A1337","udp%3A%2F%2Ftracker.coppersurfer.tk%3A6969","udp%3A%2F%2Fexodus.desync.com%3A6969"],"infoHash":"1bf350147081a359c51cf745a50911d078b1708c","infoHashBuffer":{"type":"Buffer","data":[27,243,80,20,112,129,163,89,197,28,247,69,165,9,17,208,120,177,112,140]},"announce":[],"urlList":[]}}